# xmcd CD database file
#
# Track frame offsets:
#	150
#	23379
#	48331
#	70530
#	119104
#	148873
#	177756
#	209505
#	249236
#	285511
#
# Disc length: 4096 seconds
#
# Revision: 2
# Processed by: cddbd v1.5.2PL0 Copyright (c) Steve Scherf et al.
# Submitted via: CDex 1.70beta2
#
DISCID=8b0ffe0a
DTITLE=Zoran Škrinjar and International Jazz Connection - The Magic Voice Of Miss Mysterious
DYEAR=2006
DGENRE=Jazz
TTITLE0=Mr. B-A-C-H
TTITLE1=Fille Rouge - Fil Rouge Part 1
TTITLE2=Fast Food On Lent
TTITLE3=Springtime - Stringtime
TTITLE4=Amadeusblues.com
TTITLE5=Fille Rouge - Fil Rouge Part 2
TTITLE6=Gru, Gru, Groovie
TTITLE7=The Magic Voice Of Miss Mysterious
TTITLE8=Finally
TTITLE9=Bonus Track: Fille Rouge - Fil Rouge Part 3, Second Version
EXTD=YEAR: 2006
EXTT0=
EXTT1=
EXTT2=
EXTT3=
EXTT4=
EXTT5=
EXTT6=
EXTT7=
EXTT8=
EXTT9=
PLAYORDER=
